<svg id="Capa_1" enable-background="new 0 0 512 512" height="512" viewBox="0 0 512 512" width="512" xmlns="http://www.w3.org/2000/svg"><g><path d="m127.805 231.186c3.872 1.475 8.204-.469 9.678-4.339l6.301-16.545h42.168l6.236 16.523c1.134 3.004 3.987 4.854 7.019 4.854.879 0 1.775-.156 2.646-.485 3.875-1.463 5.832-5.79 4.369-9.665l-32.391-85.832c-.026-.069-.053-.138-.081-.206-1.467-3.566-4.905-5.869-8.761-5.869-.003 0-.007 0-.01 0-3.86.004-7.297 2.315-8.759 5.887-.023.057-.045.113-.067.17l-32.688 85.828c-1.473 3.872.469 8.205 4.34 9.679zm37.161-76.497 15.326 40.613h-30.794z"/><path d="m226.69 231.496c.533.092 1.079.185 10.58.185 4.616 0 11.346-.022 21.214-.078 4.142-.022 7.481-3.399 7.458-7.542-.023-4.142-3.444-7.494-7.542-7.458-8.167.045-16.994.076-22.941.073v-79.554c0-4.142-3.358-7.5-7.5-7.5s-7.5 3.358-7.5 7.5v86.981c-.001 3.654 2.63 6.775 6.231 7.393z"/><path d="m287.245 231.677h36.346c4.142 0 7.5-3.358 7.5-7.5s-3.358-7.5-7.5-7.5h-28.846v-28.129h26.167c4.142 0 7.5-3.358 7.5-7.5 0-4.143-3.358-7.5-7.5-7.5h-26.167v-28.13h28.846c4.142 0 7.5-3.358 7.5-7.5s-3.358-7.5-7.5-7.5h-36.346c-4.142 0-7.5 3.358-7.5 7.5v86.259c0 4.142 3.358 7.5 7.5 7.5z"/><path d="m114.682 206.629c2.938-16.457-10.031-27.49-23.148-32.329-11.247-4.148-21.676-8.679-24.258-9.813-2.876-2.095-4.274-5.451-3.753-9.082.651-4.537 4.126-8.175 9.296-9.732 14.116-4.251 26.836 5.966 27.079 6.164 3.171 2.641 7.883 2.224 10.541-.938 2.665-3.171 2.255-7.902-.916-10.567-.764-.643-18.981-15.664-41.031-9.021-10.744 3.236-18.337 11.652-19.818 21.963-1.377 9.594 2.777 18.819 10.842 24.077.332.216.679.406 1.041.567.5.223 12.389 5.515 25.786 10.457 9.756 3.599 14.703 9.291 13.573 15.619-1.098 6.149-7.968 12.685-18.536 12.685-9.591 0-18.854-3.903-24.779-10.441-2.781-3.068-7.523-3.303-10.594-.521-3.069 2.781-3.302 7.524-.521 10.594 8.721 9.623 22.139 15.368 35.894 15.368 16.435-.002 30.752-10.77 33.302-25.05z"/><path d="m496.484 291.557c8.556 0 15.516-6.961 15.516-15.517v-192.387c0-8.556-6.96-15.516-15.516-15.516h-112.742v-17.065h8.533c4.142 0 7.5-3.357 7.5-7.5 0-4.142-3.358-7.5-7.5-7.5h-32.065c-4.142 0-7.5 3.358-7.5 7.5 0 4.143 3.358 7.5 7.5 7.5h8.532v17.065h-105.242v-17.065h8.532c4.142 0 7.5-3.357 7.5-7.5 0-4.142-3.358-7.5-7.5-7.5h-32.064c-4.142 0-7.5 3.358-7.5 7.5 0 4.143 3.358 7.5 7.5 7.5h8.532v17.065h-105.242v-17.065h8.532c4.142 0 7.5-3.357 7.5-7.5 0-4.142-3.358-7.5-7.5-7.5h-32.065c-4.142 0-7.5 3.358-7.5 7.5 0 4.143 3.358 7.5 7.5 7.5h8.533v17.065h-112.742c-8.556 0-15.516 6.961-15.516 15.516v192.387c0 8.556 6.96 15.517 15.516 15.517h32.581v17.064h-40.597c-4.142 0-7.5 3.357-7.5 7.5 0 4.142 3.358 7.5 7.5 7.5h200.919v105.242h-16.548c-8.556 0-15.516 6.96-15.516 15.516v24.049c0 4.142 3.358 7.5 7.5 7.5h144.29c4.142 0 7.5-3.358 7.5-7.5v-24.049c0-8.556-6.96-15.516-15.516-15.516h-16.548v-80.677c0-4.142-3.358-7.5-7.5-7.5s-7.5 3.358-7.5 7.5v80.677h-65.161v-105.242h281.08c4.142 0 7.5-3.358 7.5-7.5 0-4.143-3.358-7.5-7.5-7.5h-40.597v-17.064zm-175.839 152.822v16.549h-129.29v-16.549c0-.284.231-.516.516-.516h128.258c.285 0 .516.232.516.516zm-257.548-152.822h8.534c4.142 0 7.5-3.358 7.5-7.5 0-4.143-3.358-7.5-7.5-7.5h-56.115c-.285 0-.516-.231-.516-.517v-192.387c0-.285.231-.516.516-.516h480.968c.285 0 .516.231.516.516v192.387c0 .285-.231.517-.516.517h-392.79c-4.142 0-7.5 3.357-7.5 7.5 0 4.142 3.358 7.5 7.5 7.5h24.564v17.064h-65.161zm305.645 0v17.064h-65.162v-17.064zm-225.484 17.064v-17.064h65.161v17.064zm80.161-17.064h65.161v17.064h-65.161zm225.484 17.064h-65.161v-17.064h65.161z"/><path d="m391.452 237.036c.948.398 1.932.586 2.899.586 2.931 0 5.714-1.728 6.919-4.6l41.834-99.682c1.603-3.819-.194-8.215-4.013-9.818-3.821-1.603-8.215.195-9.818 4.014l-41.834 99.682c-1.604 3.82.193 8.216 4.013 9.818z"/><path d="m381.701 176.253c14.328 0 25.984-13.001 25.984-28.98s-11.657-28.98-25.984-28.98c-14.328 0-25.985 13-25.985 28.98s11.657 28.98 25.985 28.98zm0-42.96c6.057 0 10.984 6.271 10.984 13.98s-4.928 13.98-10.984 13.98c-6.057 0-10.985-6.271-10.985-13.98s4.928-13.98 10.985-13.98z"/><path d="m419.718 215.427c0 15.98 11.657 28.98 25.984 28.98 14.328 0 25.985-13 25.985-28.98 0-15.979-11.657-28.979-25.985-28.979-14.327-.001-25.984 12.999-25.984 28.979zm25.985-13.98c6.057 0 10.985 6.271 10.985 13.979 0 7.709-4.928 13.98-10.985 13.98s-10.984-6.271-10.984-13.98c-.001-7.707 4.927-13.979 10.984-13.979z"/></g></svg>