<svg id="icons" enable-background="new 0 0 64 64" height="512" viewBox="0 0 64 64" width="512" xmlns="http://www.w3.org/2000/svg"><g><g><path d="m62 45c-.553 0-1-.447-1-1v-35h-58v35c0 .553-.447 1-1 1s-1-.447-1-1v-36c0-.553.447-1 1-1h60c.553 0 1 .447 1 1v36c0 .553-.447 1-1 1z"/></g><g><g><path d="m11 9c-.553 0-1-.447-1-1v-3c0-.553.447-1 1-1s1 .447 1 1v3c0 .553-.447 1-1 1z"/></g><g><path d="m14 6h-6c-.553 0-1-.447-1-1s.447-1 1-1h6c.553 0 1 .447 1 1s-.447 1-1 1z"/></g><g><path d="m25 9c-.553 0-1-.447-1-1v-3c0-.553.447-1 1-1s1 .447 1 1v3c0 .553-.447 1-1 1z"/></g><g><path d="m28 6h-6c-.553 0-1-.447-1-1s.447-1 1-1h6c.553 0 1 .447 1 1s-.447 1-1 1z"/></g><g><path d="m39 9c-.553 0-1-.447-1-1v-3c0-.553.447-1 1-1s1 .447 1 1v3c0 .553-.447 1-1 1z"/></g><g><path d="m42 6h-6c-.553 0-1-.447-1-1s.447-1 1-1h6c.553 0 1 .447 1 1s-.447 1-1 1z"/></g><g><path d="m53 9c-.553 0-1-.447-1-1v-3c0-.553.447-1 1-1s1 .447 1 1v3c0 .553-.447 1-1 1z"/></g><g><path d="m56 6h-6c-.553 0-1-.447-1-1s.447-1 1-1h6c.553 0 1 .447 1 1s-.447 1-1 1z"/></g></g><g><path d="m63 45h-62c-.553 0-1-.447-1-1s.447-1 1-1h62c.553 0 1 .447 1 1s-.447 1-1 1z"/></g><g><g><path d="m29 60c-.553 0-1-.447-1-1v-15c0-.553.447-1 1-1s1 .447 1 1v15c0 .553-.447 1-1 1z"/></g><g><path d="m35 60c-.553 0-1-.447-1-1v-15c0-.553.447-1 1-1s1 .447 1 1v15c0 .553-.447 1-1 1z"/></g></g><g><path d="m36 49h-1c-.553 0-1-.447-1-1s.447-1 1-1h1c.553 0 1 .447 1 1s-.447 1-1 1z"/></g><g><path d="m36 53h-1c-.553 0-1-.447-1-1s.447-1 1-1h1c.553 0 1 .447 1 1s-.447 1-1 1z"/></g><g><path d="m36 57h-1c-.553 0-1-.447-1-1s.447-1 1-1h1c.553 0 1 .447 1 1s-.447 1-1 1z"/></g><g><g><path d="m57.002 25.004h-19.001c-.553 0-1-.447-1-1s.447-1 1-1h19.001c.553 0 1 .447 1 1s-.447 1-1 1z"/></g><g><path d="m57.002 22h-19.001c-.553 0-1-.447-1-1s.447-1 1-1h19.001c.553 0 1 .447 1 1s-.447 1-1 1z"/></g><g><path d="m57.002 19h-19.001c-.553 0-1-.447-1-1s.447-1 1-1h19.001c.553 0 1 .447 1 1s-.447 1-1 1z"/></g><g><path d="m57.002 28.002h-19.001c-.553 0-1-.447-1-1s.447-1 1-1h19.001c.553 0 1 .447 1 1s-.447 1-1 1z"/></g><g><path d="m46 30.996h-7.999c-.553 0-1-.447-1-1s.447-1 1-1h7.999c.553 0 1 .447 1 1s-.447 1-1 1z"/></g></g><g><g><path d="m42 36h-3.999c-.553 0-1-.447-1-1s.447-1 1-1h3.999c.553 0 1 .447 1 1s-.447 1-1 1z"/></g><g><path d="m46.001 35h-.999c-.553 0-1-.447-1-1s.447-1 1-1h.999c.553 0 1 .447 1 1s-.447 1-1 1z"/></g><g><path d="m46.002 37c-.367 0-.721-.202-.896-.553l-.999-2c-.247-.494-.047-1.095.447-1.342.493-.246 1.096-.047 1.342.447l.999 2c.247.494.047 1.095-.447 1.342-.143.072-.296.106-.446.106z"/></g><g><path d="m46.001 37h-1c-.553 0-1-.447-1-1s.447-1 1-1h1c.553 0 1 .447 1 1s-.447 1-1 1z"/></g></g><g><g><path d="m20.004 40c-3.741 0-7.257-1.456-9.9-4.1-5.458-5.459-5.458-14.342 0-19.801 2.644-2.644 6.159-4.099 9.9-4.099 3.74 0 7.257 1.455 9.9 4.099 5.458 5.459 5.458 14.342 0 19.801-2.643 2.644-6.16 4.1-9.9 4.1zm0-25.999c-3.207 0-6.221 1.247-8.486 3.513-4.679 4.68-4.679 12.293 0 16.973 2.265 2.266 5.279 3.513 8.486 3.513 3.206 0 6.22-1.248 8.486-3.514 4.679-4.68 4.679-12.293 0-16.973-2.266-2.264-5.28-3.512-8.486-3.512z"/></g></g><g><g><path d="m14.499 32.002c-1.93 0-3.5-1.57-3.5-3.5s1.57-3.5 3.5-3.5 3.5 1.57 3.5 3.5-1.57 3.5-3.5 3.5zm0-5c-.827 0-1.5.673-1.5 1.5s.673 1.5 1.5 1.5 1.5-.673 1.5-1.5-.673-1.5-1.5-1.5z"/></g><g><path d="m19.499 32.002c-1.93 0-3.5-1.57-3.5-3.5s1.57-3.5 3.5-3.5 3.5 1.57 3.5 3.5-1.57 3.5-3.5 3.5zm0-5c-.827 0-1.5.673-1.5 1.5s.673 1.5 1.5 1.5 1.5-.673 1.5-1.5-.673-1.5-1.5-1.5z"/></g><g><path d="m25.499 32.002c-.553 0-1-.447-1-1s.447-1 1-1c.827 0 1.5-.673 1.5-1.5s-.673-1.5-1.5-1.5c-.553 0-1-.447-1-1s.447-1 1-1c1.93 0 3.5 1.57 3.5 3.5s-1.57 3.5-3.5 3.5z"/></g><g><path d="m16.999 27.001c-1.93 0-3.5-1.57-3.5-3.5s1.57-3.5 3.5-3.5 3.5 1.57 3.5 3.5-1.57 3.5-3.5 3.5zm0-5c-.827 0-1.5.673-1.5 1.5s.673 1.5 1.5 1.5 1.5-.673 1.5-1.5-.673-1.5-1.5-1.5z"/></g><g><path d="m22.999 27.001c-.553 0-1-.447-1-1s.447-1 1-1c.827 0 1.5-.673 1.5-1.5s-.673-1.5-1.5-1.5c-.553 0-1-.447-1-1s.447-1 1-1c1.93 0 3.5 1.57 3.5 3.5s-1.57 3.5-3.5 3.5z"/></g><g><path d="m25.499 32.002h-11c-.553 0-1-.447-1-1s.447-1 1-1h11c.553 0 1 .447 1 1s-.447 1-1 1z"/></g><g><path d="m25.499 27.002h-11c-.553 0-1-.447-1-1s.447-1 1-1h11c.553 0 1 .447 1 1s-.447 1-1 1z"/></g><g><path d="m22.999 22.001h-6c-.553 0-1-.447-1-1s.447-1 1-1h6c.553 0 1 .447 1 1s-.447 1-1 1z"/></g></g></g></svg>