<svg id="Layer_3" enable-background="new 0 0 64 64" height="512" viewBox="0 0 64 64" width="512" xmlns="http://www.w3.org/2000/svg"><g><path d="m56 1h-34c-.552 0-1 .448-1 1v3h-4v-3c0-.552-.448-1-1-1h-6c-.552 0-1 .448-1 1v50h-1c-.552 0-1 .447-1 1v10h2v-9h8v9h2v-10c0-.553-.448-1-1-1h-1v-5h4v3c0 .553.448 1 1 1h34c.552 0 1-.447 1-1v-48c0-.552-.448-1-1-1zm-35 6v4h-4v-4zm0 6v26h-4v-26zm-10 39v-49h4v49zm6-7v-4h4v4zm38 4h-32v-46h32z"/><path d="m28 27h22c.552 0 1-.448 1-1v-4c0-.552-.448-1-1-1h-1v-1c0-4.469-2.947-8.262-7-9.539v-.461c0-1.654-1.346-3-3-3s-3 1.346-3 3v.461c-4.053 1.277-7 5.07-7 9.539v1h-1c-.552 0-1 .448-1 1v4c0 .552.448 1 1 1zm10-17c0-.551.449-1 1-1s1 .449 1 1v.051c-.329-.033-.662-.051-1-.051s-.671.018-1 .051zm-7 10c0-4.411 3.589-8 8-8s8 3.589 8 8v1h-16zm-2 3h20v2h-20z"/><path d="m25 29h28v2h-28z"/><path d="m25 33h28v2h-28z"/><path d="m25 37h28v2h-28z"/><path d="m25 41h28v2h-28z"/><path d="m25 45h28v2h-28z"/></g></svg>