<svg height="512" viewBox="0 0 512 512" width="512" xmlns="http://www.w3.org/2000/svg"><g id="Billboard"><path d="m224 56h64v24h-64z" fill="#57a4ff"/><path d="m72 56h64v24h-64z" fill="#57a4ff"/><path d="m376 56h64v24h-64z" fill="#57a4ff"/><path d="m112 368h32v96h-32z" fill="#57a4ff"/><path d="m368 368h32v96h-32z" fill="#57a4ff"/><g fill="#004fac"><path d="m161.039 315.941a8 8 0 0 0 6.961 4.059h168a8 8 0 0 0 6.86-12.116l-48-80a8 8 0 0 0 -13.72 0l-9.14 15.236-29.14-48.566a8 8 0 0 0 -13.72 0l-68 113.33a8 8 0 0 0 -.101 8.057zm126.961-68.391 33.871 56.45h-13.341l-27.2-45.332zm-52-33.331 53.87 89.781h-107.74z"/><path d="m324 216a28 28 0 1 0 -28-28 28.032 28.032 0 0 0 28 28zm0-40a12 12 0 1 1 -12 12 12.013 12.013 0 0 1 12-12z"/><path d="m136 144a8 8 0 0 0 -8-8h-40a8 8 0 0 0 0 16h40a8 8 0 0 0 8-8z"/><path d="m152 152h8a8 8 0 0 0 0-16h-8a8 8 0 0 0 0 16z"/><path d="m464 456h-56v-80h48a8 8 0 0 0 8-8v-256a8 8 0 0 0 -8-8h-40v-16h24a8 8 0 0 0 8-8v-24a8 8 0 0 0 -8-8h-64a8 8 0 0 0 -8 8v24a8 8 0 0 0 8 8h24v16h-136v-16h24a8 8 0 0 0 8-8v-24a8 8 0 0 0 -8-8h-64a8 8 0 0 0 -8 8v24a8 8 0 0 0 8 8h24v16h-136v-16h24a8 8 0 0 0 8-8v-24a8 8 0 0 0 -8-8h-64a8 8 0 0 0 -8 8v24a8 8 0 0 0 8 8h24v16h-40a8 8 0 0 0 -8 8v256a8 8 0 0 0 8 8h48v80h-88a8 8 0 0 0 0 16h448a8 8 0 0 0 0-16zm-80-384v-8h48v8zm-152 0v-8h48v8zm-152 0v-8h48v8zm-16 48h384v240h-384zm296 256v80h-208v-80zm-240 80v-80h16v80zm256 0v-80h16v80z"/><path d="m496 456h-8a8 8 0 0 0 0 16h8a8 8 0 0 0 0-16z"/></g></g></svg>